{
    "asset" : {
        "generator" : "Khronos glTF Blender I/O v1.6.16",
        "version" : "2.0"
    },
    "extensionsUsed" : [
        "KHR_materials_clearcoat"
    ],
    "scene" : 0,
    "scenes" : [
        {
            "name" : "Scene",
            "nodes" : [
                0,
                1
            ]
        }
    ],
    "nodes" : [
        {
            "mesh" : 0,
            "name" : "RecurveBow",
            "rotation" : [
                0.7071068286895752,
                0,
                0,
                0.7071068286895752
            ]
        },
        {
            "mesh" : 1,
            "name" : "BowStringMesh",
            "rotation" : [
                0.7071068286895752,
                0,
                0,
                0.7071068286895752
            ]
        }
    ],
    "materials" : [
        {
            "doubleSided" : true,
            "extensions" : {
                "KHR_materials_clearcoat" : {
                    "clearcoatFactor" : 0.10000000149011612,
                    "clearcoatRoughnessFactor" : 0.029999999329447746
                }
            },
            "name" : "BowMaterial.001",
            "pbrMetallicRoughness" : {
                "baseColorTexture" : {
                    "index" : 0
                },
                "metallicFactor" : 0,
                "roughnessFactor" : 0.5
            }
        },
        {
            "doubleSided" : true,
            "name" : "StringMaterial",
            "pbrMetallicRoughness" : {
                "baseColorFactor" : [
                    0,
                    0,
                    0,
                    1
                ],
                "metallicFactor" : 0,
                "roughnessFactor" : 0.37254899740219116
            }
        }
    ],
    "meshes" : [
        {
            "name" : "BezierCurve",
            "primitives" : [
                {
                    "attributes" : {
                        "POSITION" : 0,
                        "NORMAL" : 1,
                        "TEXCOORD_0" : 2
                    },
                    "indices" : 3,
                    "material" : 0
                }
            ]
        },
        {
            "name" : "BezierCurve.001",
            "primitives" : [
                {
                    "attributes" : {
                        "POSITION" : 4,
                        "NORMAL" : 5,
                        "TEXCOORD_0" : 6
                    },
                    "indices" : 7,
                    "material" : 1
                }
            ]
        }
    ],
    "textures" : [
        {
            "sampler" : 0,
            "source" : 0
        }
    ],
    "images" : [
        {
            "bufferView" : 4,
            "mimeType" : "image/png",
            "name" : "BowTexture2"
        }
    ],
    "accessors" : [
        {
            "bufferView" : 0,
            "componentType" : 5126,
            "count" : 6373,
            "max" : [
                0.07826544344425201,
                0.04822442680597305,
                2.4739983081817627
            ],
            "min" : [
                -0.07842915505170822,
                -0.6641477346420288,
                -2.4539036750793457
            ],
            "type" : "VEC3"
        },
        {
            "bufferView" : 1,
            "componentType" : 5126,
            "count" : 6373,
            "type" : "VEC3"
        },
        {
            "bufferView" : 2,
            "componentType" : 5126,
            "count" : 6373,
            "type" : "VEC2"
        },
        {
            "bufferView" : 3,
            "componentType" : 5123,
            "count" : 32928,
            "type" : "SCALAR"
        },
        {
            "bufferView" : 5,
            "componentType" : 5126,
            "count" : 1275,
            "max" : [
                0.006588879972696304,
                0.05547194182872772,
                2.4442026615142822
            ],
            "min" : [
                -0.0024127624928951263,
                -0.1137232705950737,
                -2.4483959674835205
            ],
            "type" : "VEC3"
        },
        {
            "bufferView" : 6,
            "componentType" : 5126,
            "count" : 1275,
            "type" : "VEC3"
        },
        {
            "bufferView" : 7,
            "componentType" : 5126,
            "count" : 1275,
            "type" : "VEC2"
        },
        {
            "bufferView" : 8,
            "componentType" : 5123,
            "count" : 7200,
            "type" : "SCALAR"
        }
    ],
    "bufferViews" : [
        {
            "buffer" : 0,
            "byteLength" : 76476,
            "byteOffset" : 0
        },
        {
            "buffer" : 0,
            "byteLength" : 76476,
            "byteOffset" : 76476
        },
        {
            "buffer" : 0,
            "byteLength" : 50984,
            "byteOffset" : 152952
        },
        {
            "buffer" : 0,
            "byteLength" : 65856,
            "byteOffset" : 203936
        },
        {
            "buffer" : 0,
            "byteLength" : 524193,
            "byteOffset" : 269792
        },
        {
            "buffer" : 0,
            "byteLength" : 15300,
            "byteOffset" : 793988
        },
        {
            "buffer" : 0,
            "byteLength" : 15300,
            "byteOffset" : 809288
        },
        {
            "buffer" : 0,
            "byteLength" : 10200,
            "byteOffset" : 824588
        },
        {
            "buffer" : 0,
            "byteLength" : 14400,
            "byteOffset" : 834788
        }
    ],
    "samplers" : [
        {
            "magFilter" : 9729,
            "minFilter" : 9987
        }
    ],
    "buffers" : [
        {
            "byteLength" : 849188,
            "uri" : "data:application/octet-stream;base64,"
        }
    ]
}
